solid Move Face_7828310
 facet normal  1.000000  0.000000 -0.000000
  outer loop
   vertex  156.750000  4.250000 48.000000
   vertex  156.750000  4.250000 38.000000
   vertex  156.750000 23.250000 48.000000
  endloop
 endfacet
 facet normal  1.000000 -0.000000 -0.000000
  outer loop
   vertex  156.750000 23.250000 48.000000
   vertex  156.750000  4.250000 38.000000
   vertex  156.750000 23.250000 38.000000
  endloop
 endfacet
 facet normal -0.000000 -1.000000 -0.000000
  outer loop
   vertex  156.750000 23.250000 48.000000
   vertex  156.750000 23.250000 38.000000
   vertex  165.750000 23.250000 48.000000
  endloop
 endfacet
 facet normal -0.000000 -1.000000  0.000000
  outer loop
   vertex  165.750000 23.250000 48.000000
   vertex  156.750000 23.250000 38.000000
   vertex  165.750000 23.250000 38.000000
  endloop
 endfacet
 facet normal -0.000000 -0.000000 -1.000000
  outer loop
   vertex  156.750000  4.250000 38.000000
   vertex  153.750000  4.250000 38.000000
   vertex  156.750000 23.250000 38.000000
  endloop
 endfacet
 facet normal -0.000000 -0.000000 -1.000000
  outer loop
   vertex  156.750000 23.250000 38.000000
   vertex  153.750000  4.250000 38.000000
   vertex  153.750000 26.250000 38.000000
  endloop
 endfacet
 facet normal  0.000000 -0.000000 -1.000000
  outer loop
   vertex  165.750000 26.250000 38.000000
   vertex  156.750000 23.250000 38.000000
   vertex  153.750000 26.250000 38.000000
  endloop
 endfacet
 facet normal -0.000000 -0.000000 -1.000000
  outer loop
   vertex  165.750000 26.250000 38.000000
   vertex  165.750000 23.250000 38.000000
   vertex  156.750000 23.250000 38.000000
  endloop
 endfacet
 facet normal -1.000000  0.000000 -0.000000
  outer loop
   vertex  153.750000 26.250000 48.000000
   vertex  153.750000 26.250000 38.000000
   vertex  153.750000  4.250000 48.000000
  endloop
 endfacet
 facet normal -1.000000 -0.000000 -0.000000
  outer loop
   vertex  153.750000  4.250000 48.000000
   vertex  153.750000 26.250000 38.000000
   vertex  153.750000  4.250000 38.000000
  endloop
 endfacet
 facet normal -0.000000  1.000000 -0.000000
  outer loop
   vertex  165.750000 26.250000 48.000000
   vertex  165.750000 26.250000 38.000000
   vertex  153.750000 26.250000 48.000000
  endloop
 endfacet
 facet normal -0.000000  1.000000 -0.000000
  outer loop
   vertex  153.750000 26.250000 48.000000
   vertex  165.750000 26.250000 38.000000
   vertex  153.750000 26.250000 38.000000
  endloop
 endfacet
 facet normal -0.000000 -0.000000 -1.000000
  outer loop
   vertex  156.750000 23.250000 48.000000
   vertex  165.750000 23.250000 48.000000
   vertex  156.750000  4.250000 48.000000
  endloop
 endfacet
 facet normal -0.000000  0.000000 -1.000000
  outer loop
   vertex  156.750000  4.250000 48.000000
   vertex  165.750000 23.250000 48.000000
   vertex  165.750000  4.250000 48.000000
  endloop
 endfacet
 facet normal -0.000000 -1.000000 -0.000000
  outer loop
   vertex  156.750000  4.250000 48.000000
   vertex  165.750000  4.250000 51.000000
   vertex  153.750000  4.250000 48.000000
  endloop
 endfacet
 facet normal  0.000000 -1.000000 -0.000000
  outer loop
   vertex  153.750000  4.250000 38.000000
   vertex  156.750000  4.250000 48.000000
   vertex  153.750000  4.250000 48.000000
  endloop
 endfacet
 facet normal -0.000000 -1.000000 -0.000000
  outer loop
   vertex  153.750000  4.250000 38.000000
   vertex  156.750000  4.250000 38.000000
   vertex  156.750000  4.250000 48.000000
  endloop
 endfacet
 facet normal -0.000000 -1.000000 -0.000000
  outer loop
   vertex  156.750000  4.250000 48.000000
   vertex  165.750000  4.250000 48.000000
   vertex  165.750000  4.250000 51.000000
  endloop
 endfacet
 facet normal -0.000000 -1.000000  0.000000
  outer loop
   vertex  165.750000  4.250000 51.000000
   vertex   4.250000  4.250000 51.000000
   vertex  153.750000  4.250000 48.000000
  endloop
 endfacet
 facet normal -0.000000 -1.000000  0.000000
  outer loop
   vertex  153.750000  4.250000 48.000000
   vertex   4.250000  4.250000 51.000000
   vertex  16.250000  4.250000 48.000000
  endloop
 endfacet
 facet normal -0.000000 -1.000000  0.000000
  outer loop
   vertex  16.250000  4.250000 48.000000
   vertex   4.250000  4.250000 51.000000
   vertex  13.250000  4.250000 48.000000
  endloop
 endfacet
 facet normal  0.000000 -1.000000 -0.000000
  outer loop
   vertex  13.250000  4.250000 38.000000
   vertex  16.250000  4.250000 48.000000
   vertex  13.250000  4.250000 48.000000
  endloop
 endfacet
 facet normal -0.000000 -1.000000 -0.000000
  outer loop
   vertex  13.250000  4.250000 38.000000
   vertex  16.250000  4.250000 38.000000
   vertex  16.250000  4.250000 48.000000
  endloop
 endfacet
 facet normal -0.000000 -1.000000 -0.000000
  outer loop
   vertex   4.250000  4.250000 51.000000
   vertex   4.250000  4.250000 48.000000
   vertex  13.250000  4.250000 48.000000
  endloop
 endfacet
 facet normal -1.000000 -0.000000 -0.000000
  outer loop
   vertex  13.250000  4.250000 38.000000
   vertex  13.250000  4.250000 48.000000
   vertex  13.250000 23.250000 38.000000
  endloop
 endfacet
 facet normal -1.000000 -0.000000 -0.000000
  outer loop
   vertex  13.250000 23.250000 38.000000
   vertex  13.250000  4.250000 48.000000
   vertex  13.250000 23.250000 48.000000
  endloop
 endfacet
 facet normal -0.000000 -1.000000 -0.000000
  outer loop
   vertex   4.250000 23.250000 48.000000
   vertex   4.250000 23.250000 38.000000
   vertex  13.250000 23.250000 48.000000
  endloop
 endfacet
 facet normal -0.000000 -1.000000  0.000000
  outer loop
   vertex  13.250000 23.250000 48.000000
   vertex   4.250000 23.250000 38.000000
   vertex  13.250000 23.250000 38.000000
  endloop
 endfacet
 facet normal -0.000000  0.000000 -1.000000
  outer loop
   vertex   4.250000 26.250000 38.000000
   vertex  16.250000 26.250000 38.000000
   vertex  13.250000 23.250000 38.000000
  endloop
 endfacet
 facet normal -0.000000 -0.000000 -1.000000
  outer loop
   vertex   4.250000 23.250000 38.000000
   vertex   4.250000 26.250000 38.000000
   vertex  13.250000 23.250000 38.000000
  endloop
 endfacet
 facet normal -0.000000 -0.000000 -1.000000
  outer loop
   vertex  13.250000  4.250000 38.000000
   vertex  13.250000 23.250000 38.000000
   vertex  16.250000  4.250000 38.000000
  endloop
 endfacet
 facet normal -0.000000 -0.000000 -1.000000
  outer loop
   vertex  16.250000  4.250000 38.000000
   vertex  13.250000 23.250000 38.000000
   vertex  16.250000 26.250000 38.000000
  endloop
 endfacet
 facet normal  1.000000 -0.000000 -0.000000
  outer loop
   vertex  16.250000 26.250000 38.000000
   vertex  16.250000 26.250000 48.000000
   vertex  16.250000  4.250000 38.000000
  endloop
 endfacet
 facet normal  1.000000 -0.000000 -0.000000
  outer loop
   vertex  16.250000  4.250000 38.000000
   vertex  16.250000 26.250000 48.000000
   vertex  16.250000  4.250000 48.000000
  endloop
 endfacet
 facet normal -0.000000  1.000000 -0.000000
  outer loop
   vertex  16.250000 26.250000 48.000000
   vertex  16.250000 26.250000 38.000000
   vertex   4.250000 26.250000 48.000000
  endloop
 endfacet
 facet normal -0.000000  1.000000 -0.000000
  outer loop
   vertex   4.250000 26.250000 48.000000
   vertex  16.250000 26.250000 38.000000
   vertex   4.250000 26.250000 38.000000
  endloop
 endfacet
 facet normal -0.000000 -0.000000 -1.000000
  outer loop
   vertex   4.250000 23.250000 48.000000
   vertex  13.250000 23.250000 48.000000
   vertex   4.250000  4.250000 48.000000
  endloop
 endfacet
 facet normal -0.000000  0.000000 -1.000000
  outer loop
   vertex   4.250000  4.250000 48.000000
   vertex  13.250000 23.250000 48.000000
   vertex  13.250000  4.250000 48.000000
  endloop
 endfacet
 facet normal  1.000000 -0.000000 -0.000000
  outer loop
   vertex  165.750000 23.250000 48.000000
   vertex  165.750000 26.250000 48.000000
   vertex  165.750000  4.250000 51.000000
  endloop
 endfacet
 facet normal  1.000000 -0.000000 -0.000000
  outer loop
   vertex  165.750000  4.250000 48.000000
   vertex  165.750000 23.250000 48.000000
   vertex  165.750000  4.250000 51.000000
  endloop
 endfacet
 facet normal  1.000000  0.000000 -0.000000
  outer loop
   vertex  165.750000 23.250000 48.000000
   vertex  165.750000 23.250000 38.000000
   vertex  165.750000 26.250000 48.000000
  endloop
 endfacet
 facet normal  1.000000 -0.000000 -0.000000
  outer loop
   vertex  165.750000 26.250000 48.000000
   vertex  165.750000 23.250000 38.000000
   vertex  165.750000 26.250000 38.000000
  endloop
 endfacet
 facet normal  1.000000 -0.000000 -0.000000
  outer loop
   vertex  165.750000 26.250000 48.000000
   vertex  165.750000 173.750000 48.000000
   vertex  165.750000  4.250000 51.000000
  endloop
 endfacet
 facet normal  1.000000  0.000000 -0.000000
  outer loop
   vertex  165.750000  4.250000 51.000000
   vertex  165.750000 173.750000 48.000000
   vertex  165.750000 195.750000 51.000000
  endloop
 endfacet
 facet normal  1.000000 -0.000000 -0.000000
  outer loop
   vertex  165.750000 195.750000 51.000000
   vertex  165.750000 173.750000 48.000000
   vertex  165.750000 176.750000 48.000000
  endloop
 endfacet
 facet normal  1.000000 -0.000000 -0.000000
  outer loop
   vertex  165.750000 195.750000 48.000000
   vertex  165.750000 195.750000 51.000000
   vertex  165.750000 176.750000 48.000000
  endloop
 endfacet
 facet normal  1.000000  0.000000 -0.000000
  outer loop
   vertex  165.750000 173.750000 48.000000
   vertex  165.750000 173.750000 38.000000
   vertex  165.750000 176.750000 48.000000
  endloop
 endfacet
 facet normal  1.000000 -0.000000 -0.000000
  outer loop
   vertex  165.750000 176.750000 48.000000
   vertex  165.750000 173.750000 38.000000
   vertex  165.750000 176.750000 38.000000
  endloop
 endfacet
 facet normal -0.000000 -0.000000 -1.000000
  outer loop
   vertex  165.750000 26.250000 48.000000
   vertex  153.750000 26.250000 48.000000
   vertex  110.750000 97.250000 48.000000
  endloop
 endfacet
 facet normal  0.000000 -0.000000 -1.000000
  outer loop
   vertex  165.750000 173.750000 48.000000
   vertex  110.750000 97.250000 48.000000
   vertex  153.750000 173.750000 48.000000
  endloop
 endfacet
 facet normal  0.000000 -0.000000 -1.000000
  outer loop
   vertex  165.750000 173.750000 48.000000
   vertex  165.750000 26.250000 48.000000
   vertex  110.750000 97.250000 48.000000
  endloop
 endfacet
 facet normal -0.000000 -0.000000 -1.000000
  outer loop
   vertex  110.750000 97.250000 48.000000
   vertex  110.750000 165.250000 48.000000
   vertex  153.750000 173.750000 48.000000
  endloop
 endfacet
 facet normal -0.000000 -0.000000 -1.000000
  outer loop
   vertex  153.750000 173.750000 48.000000
   vertex  110.750000 165.250000 48.000000
   vertex  153.750000 195.750000 48.000000
  endloop
 endfacet
 facet normal -0.000000 -0.000000 -1.000000
  outer loop
   vertex  153.750000 195.750000 48.000000
   vertex  110.750000 165.250000 48.000000
   vertex  58.750000 165.250000 48.000000
  endloop
 endfacet
 facet normal  0.000000 -0.000000 -1.000000
  outer loop
   vertex  16.250000 195.750000 48.000000
   vertex  58.750000 165.250000 48.000000
   vertex  16.250000 173.750000 48.000000
  endloop
 endfacet
 facet normal -0.000000  0.000000 -1.000000
  outer loop
   vertex  16.250000 195.750000 48.000000
   vertex  153.750000 195.750000 48.000000
   vertex  58.750000 165.250000 48.000000
  endloop
 endfacet
 facet normal -0.000000 -0.000000 -1.000000
  outer loop
   vertex  58.750000 165.250000 48.000000
   vertex  58.750000 97.250000 48.000000
   vertex  16.250000 173.750000 48.000000
  endloop
 endfacet
 facet normal  0.000000 -0.000000 -1.000000
  outer loop
   vertex  16.250000 173.750000 48.000000
   vertex  58.750000 97.250000 48.000000
   vertex   4.250000 173.750000 48.000000
  endloop
 endfacet
 facet normal -0.000000 -0.000000 -1.000000
  outer loop
   vertex   4.250000 173.750000 48.000000
   vertex  58.750000 97.250000 48.000000
   vertex   4.250000 26.250000 48.000000
  endloop
 endfacet
 facet normal -0.000000  0.000000 -1.000000
  outer loop
   vertex   4.250000 26.250000 48.000000
   vertex  58.750000 97.250000 48.000000
   vertex  16.250000 26.250000 48.000000
  endloop
 endfacet
 facet normal -0.000000 -0.000000 -1.000000
  outer loop
   vertex  16.250000 26.250000 48.000000
   vertex  58.750000 97.250000 48.000000
   vertex  110.750000 97.250000 48.000000
  endloop
 endfacet
 facet normal -0.000000 -0.000000 -1.000000
  outer loop
   vertex  153.750000 26.250000 48.000000
   vertex  16.250000 26.250000 48.000000
   vertex  110.750000 97.250000 48.000000
  endloop
 endfacet
 facet normal  0.000000 -0.000000 -1.000000
  outer loop
   vertex  153.750000 26.250000 48.000000
   vertex  16.250000  4.250000 48.000000
   vertex  16.250000 26.250000 48.000000
  endloop
 endfacet
 facet normal -0.000000 -0.000000 -1.000000
  outer loop
   vertex  153.750000 26.250000 48.000000
   vertex  153.750000  4.250000 48.000000
   vertex  16.250000  4.250000 48.000000
  endloop
 endfacet
 facet normal -1.000000 -0.000000 -0.000000
  outer loop
   vertex   4.250000 26.250000 38.000000
   vertex   4.250000 23.250000 48.000000
   vertex   4.250000 26.250000 48.000000
  endloop
 endfacet
 facet normal -1.000000 -0.000000 -0.000000
  outer loop
   vertex   4.250000 26.250000 38.000000
   vertex   4.250000 23.250000 38.000000
   vertex   4.250000 23.250000 48.000000
  endloop
 endfacet
 facet normal -1.000000 -0.000000 -0.000000
  outer loop
   vertex   4.250000  4.250000 48.000000
   vertex   4.250000  4.250000 51.000000
   vertex   4.250000 23.250000 48.000000
  endloop
 endfacet
 facet normal -1.000000 -0.000000 -0.000000
  outer loop
   vertex   4.250000 23.250000 48.000000
   vertex   4.250000  4.250000 51.000000
   vertex   4.250000 26.250000 48.000000
  endloop
 endfacet
 facet normal -1.000000 -0.000000 -0.000000
  outer loop
   vertex   4.250000 26.250000 48.000000
   vertex   4.250000  4.250000 51.000000
   vertex   4.250000 173.750000 48.000000
  endloop
 endfacet
 facet normal -1.000000 -0.000000 -0.000000
  outer loop
   vertex   4.250000 173.750000 48.000000
   vertex   4.250000  4.250000 51.000000
   vertex   4.250000 195.750000 51.000000
  endloop
 endfacet
 facet normal -1.000000 -0.000000  0.000000
  outer loop
   vertex   4.250000 176.750000 48.000000
   vertex   4.250000 195.750000 51.000000
   vertex   4.250000 195.750000 48.000000
  endloop
 endfacet
 facet normal -1.000000 -0.000000 -0.000000
  outer loop
   vertex   4.250000 176.750000 48.000000
   vertex   4.250000 173.750000 48.000000
   vertex   4.250000 195.750000 51.000000
  endloop
 endfacet
 facet normal -1.000000  0.000000 -0.000000
  outer loop
   vertex   4.250000 176.750000 48.000000
   vertex   4.250000 176.750000 38.000000
   vertex   4.250000 173.750000 48.000000
  endloop
 endfacet
 facet normal -1.000000 -0.000000 -0.000000
  outer loop
   vertex   4.250000 173.750000 48.000000
   vertex   4.250000 176.750000 38.000000
   vertex   4.250000 173.750000 38.000000
  endloop
 endfacet
 facet normal -0.000000 -0.000000  1.000000
  outer loop
   vertex   4.250000  4.250000 51.000000
   vertex  55.750000 94.250000 51.000000
   vertex   4.250000 195.750000 51.000000
  endloop
 endfacet
 facet normal -0.000000  0.000000  1.000000
  outer loop
   vertex   4.250000  4.250000 51.000000
   vertex  165.750000  4.250000 51.000000
   vertex  55.750000 94.250000 51.000000
  endloop
 endfacet
 facet normal  0.000000  0.000000  1.000000
  outer loop
   vertex  55.750000 94.250000 51.000000
   vertex  165.750000  4.250000 51.000000
   vertex  113.750000 94.250000 51.000000
  endloop
 endfacet
 facet normal -0.000000  0.000000  1.000000
  outer loop
   vertex  113.750000 94.250000 51.000000
   vertex  165.750000  4.250000 51.000000
   vertex  165.750000 195.750000 51.000000
  endloop
 endfacet
 facet normal -0.000000 -0.000000  1.000000
  outer loop
   vertex  113.750000 168.250000 51.000000
   vertex  165.750000 195.750000 51.000000
   vertex   4.250000 195.750000 51.000000
  endloop
 endfacet
 facet normal -0.000000 -0.000000  1.000000
  outer loop
   vertex  55.750000 168.250000 51.000000
   vertex   4.250000 195.750000 51.000000
   vertex  55.750000 94.250000 51.000000
  endloop
 endfacet
 facet normal -0.000000 -0.000000  1.000000
  outer loop
   vertex  55.750000 168.250000 51.000000
   vertex  113.750000 168.250000 51.000000
   vertex   4.250000 195.750000 51.000000
  endloop
 endfacet
 facet normal -0.000000 -0.000000  1.000000
  outer loop
   vertex  113.750000 168.250000 51.000000
   vertex  113.750000 94.250000 51.000000
   vertex  165.750000 195.750000 51.000000
  endloop
 endfacet
 facet normal  1.000000 -0.000000 -0.000000
  outer loop
   vertex  156.750000 195.750000 38.000000
   vertex  156.750000 195.750000 48.000000
   vertex  156.750000 176.750000 38.000000
  endloop
 endfacet
 facet normal  1.000000 -0.000000 -0.000000
  outer loop
   vertex  156.750000 176.750000 38.000000
   vertex  156.750000 195.750000 48.000000
   vertex  156.750000 176.750000 48.000000
  endloop
 endfacet
 facet normal -0.000000  1.000000 -0.000000
  outer loop
   vertex  165.750000 176.750000 48.000000
   vertex  165.750000 176.750000 38.000000
   vertex  156.750000 176.750000 48.000000
  endloop
 endfacet
 facet normal -0.000000  1.000000 -0.000000
  outer loop
   vertex  156.750000 176.750000 48.000000
   vertex  165.750000 176.750000 38.000000
   vertex  156.750000 176.750000 38.000000
  endloop
 endfacet
 facet normal -0.000000 -0.000000 -1.000000
  outer loop
   vertex  165.750000 173.750000 38.000000
   vertex  153.750000 173.750000 38.000000
   vertex  156.750000 176.750000 38.000000
  endloop
 endfacet
 facet normal  0.000000 -0.000000 -1.000000
  outer loop
   vertex  165.750000 176.750000 38.000000
   vertex  165.750000 173.750000 38.000000
   vertex  156.750000 176.750000 38.000000
  endloop
 endfacet
 facet normal  0.000000 -0.000000 -1.000000
  outer loop
   vertex  156.750000 195.750000 38.000000
   vertex  156.750000 176.750000 38.000000
   vertex  153.750000 195.750000 38.000000
  endloop
 endfacet
 facet normal -0.000000 -0.000000 -1.000000
  outer loop
   vertex  153.750000 195.750000 38.000000
   vertex  156.750000 176.750000 38.000000
   vertex  153.750000 173.750000 38.000000
  endloop
 endfacet
 facet normal -1.000000 -0.000000 -0.000000
  outer loop
   vertex  153.750000 173.750000 38.000000
   vertex  153.750000 173.750000 48.000000
   vertex  153.750000 195.750000 38.000000
  endloop
 endfacet
 facet normal -1.000000 -0.000000 -0.000000
  outer loop
   vertex  153.750000 195.750000 38.000000
   vertex  153.750000 173.750000 48.000000
   vertex  153.750000 195.750000 48.000000
  endloop
 endfacet
 facet normal -0.000000 -1.000000 -0.000000
  outer loop
   vertex  153.750000 173.750000 48.000000
   vertex  153.750000 173.750000 38.000000
   vertex  165.750000 173.750000 48.000000
  endloop
 endfacet
 facet normal -0.000000 -1.000000  0.000000
  outer loop
   vertex  165.750000 173.750000 48.000000
   vertex  153.750000 173.750000 38.000000
   vertex  165.750000 173.750000 38.000000
  endloop
 endfacet
 facet normal -0.000000 -0.000000 -1.000000
  outer loop
   vertex  165.750000 176.750000 48.000000
   vertex  156.750000 176.750000 48.000000
   vertex  165.750000 195.750000 48.000000
  endloop
 endfacet
 facet normal  0.000000 -0.000000 -1.000000
  outer loop
   vertex  165.750000 195.750000 48.000000
   vertex  156.750000 176.750000 48.000000
   vertex  156.750000 195.750000 48.000000
  endloop
 endfacet
 facet normal -0.000000  1.000000  0.000000
  outer loop
   vertex  165.750000 195.750000 48.000000
   vertex  156.750000 195.750000 48.000000
   vertex  165.750000 195.750000 51.000000
  endloop
 endfacet
 facet normal -0.000000  1.000000 -0.000000
  outer loop
   vertex  165.750000 195.750000 51.000000
   vertex  156.750000 195.750000 48.000000
   vertex  153.750000 195.750000 48.000000
  endloop
 endfacet
 facet normal -0.000000  1.000000 -0.000000
  outer loop
   vertex   4.250000 195.750000 51.000000
   vertex  153.750000 195.750000 48.000000
   vertex  16.250000 195.750000 48.000000
  endloop
 endfacet
 facet normal -0.000000  1.000000 -0.000000
  outer loop
   vertex  13.250000 195.750000 48.000000
   vertex  16.250000 195.750000 48.000000
   vertex  16.250000 195.750000 38.000000
  endloop
 endfacet
 facet normal -0.000000  1.000000 -0.000000
  outer loop
   vertex  13.250000 195.750000 38.000000
   vertex  13.250000 195.750000 48.000000
   vertex  16.250000 195.750000 38.000000
  endloop
 endfacet
 facet normal -0.000000  1.000000 -0.000000
  outer loop
   vertex  156.750000 195.750000 48.000000
   vertex  156.750000 195.750000 38.000000
   vertex  153.750000 195.750000 48.000000
  endloop
 endfacet
 facet normal -0.000000  1.000000 -0.000000
  outer loop
   vertex  153.750000 195.750000 48.000000
   vertex  156.750000 195.750000 38.000000
   vertex  153.750000 195.750000 38.000000
  endloop
 endfacet
 facet normal -0.000000  1.000000 -0.000000
  outer loop
   vertex   4.250000 195.750000 48.000000
   vertex   4.250000 195.750000 51.000000
   vertex  13.250000 195.750000 48.000000
  endloop
 endfacet
 facet normal -0.000000  1.000000 -0.000000
  outer loop
   vertex  13.250000 195.750000 48.000000
   vertex   4.250000 195.750000 51.000000
   vertex  16.250000 195.750000 48.000000
  endloop
 endfacet
 facet normal  0.000000  1.000000 -0.000000
  outer loop
   vertex  153.750000 195.750000 48.000000
   vertex   4.250000 195.750000 51.000000
   vertex  165.750000 195.750000 51.000000
  endloop
 endfacet
 facet normal -1.000000  0.000000 -0.000000
  outer loop
   vertex  13.250000 195.750000 48.000000
   vertex  13.250000 195.750000 38.000000
   vertex  13.250000 176.750000 48.000000
  endloop
 endfacet
 facet normal -1.000000 -0.000000 -0.000000
  outer loop
   vertex  13.250000 176.750000 48.000000
   vertex  13.250000 195.750000 38.000000
   vertex  13.250000 176.750000 38.000000
  endloop
 endfacet
 facet normal -0.000000  1.000000 -0.000000
  outer loop
   vertex  13.250000 176.750000 48.000000
   vertex  13.250000 176.750000 38.000000
   vertex   4.250000 176.750000 48.000000
  endloop
 endfacet
 facet normal -0.000000  1.000000 -0.000000
  outer loop
   vertex   4.250000 176.750000 48.000000
   vertex  13.250000 176.750000 38.000000
   vertex   4.250000 176.750000 38.000000
  endloop
 endfacet
 facet normal -0.000000 -0.000000 -1.000000
  outer loop
   vertex  13.250000 195.750000 38.000000
   vertex  16.250000 195.750000 38.000000
   vertex  13.250000 176.750000 38.000000
  endloop
 endfacet
 facet normal -0.000000  0.000000 -1.000000
  outer loop
   vertex  13.250000 176.750000 38.000000
   vertex  16.250000 195.750000 38.000000
   vertex  16.250000 173.750000 38.000000
  endloop
 endfacet
 facet normal -0.000000 -0.000000 -1.000000
  outer loop
   vertex   4.250000 173.750000 38.000000
   vertex  13.250000 176.750000 38.000000
   vertex  16.250000 173.750000 38.000000
  endloop
 endfacet
 facet normal -0.000000 -0.000000 -1.000000
  outer loop
   vertex   4.250000 173.750000 38.000000
   vertex   4.250000 176.750000 38.000000
   vertex  13.250000 176.750000 38.000000
  endloop
 endfacet
 facet normal  1.000000  0.000000 -0.000000
  outer loop
   vertex  16.250000 173.750000 48.000000
   vertex  16.250000 173.750000 38.000000
   vertex  16.250000 195.750000 48.000000
  endloop
 endfacet
 facet normal  1.000000 -0.000000 -0.000000
  outer loop
   vertex  16.250000 195.750000 48.000000
   vertex  16.250000 173.750000 38.000000
   vertex  16.250000 195.750000 38.000000
  endloop
 endfacet
 facet normal -0.000000 -1.000000 -0.000000
  outer loop
   vertex   4.250000 173.750000 48.000000
   vertex   4.250000 173.750000 38.000000
   vertex  16.250000 173.750000 48.000000
  endloop
 endfacet
 facet normal -0.000000 -1.000000  0.000000
  outer loop
   vertex  16.250000 173.750000 48.000000
   vertex   4.250000 173.750000 38.000000
   vertex  16.250000 173.750000 38.000000
  endloop
 endfacet
 facet normal -0.000000 -0.000000 -1.000000
  outer loop
   vertex  13.250000 176.750000 48.000000
   vertex   4.250000 176.750000 48.000000
   vertex  13.250000 195.750000 48.000000
  endloop
 endfacet
 facet normal  0.000000 -0.000000 -1.000000
  outer loop
   vertex  13.250000 195.750000 48.000000
   vertex   4.250000 176.750000 48.000000
   vertex   4.250000 195.750000 48.000000
  endloop
 endfacet
 facet normal -0.000000  0.707107  0.707107
  outer loop
   vertex  110.750000 97.250000 48.000000
   vertex  58.750000 97.250000 48.000000
   vertex  113.750000 94.250000 51.000000
  endloop
 endfacet
 facet normal -0.000000  0.707107  0.707107
  outer loop
   vertex  113.750000 94.250000 51.000000
   vertex  58.750000 97.250000 48.000000
   vertex  55.750000 94.250000 51.000000
  endloop
 endfacet
 facet normal -0.707107 -0.000000  0.707107
  outer loop
   vertex  110.750000 97.250000 48.000000
   vertex  113.750000 94.250000 51.000000
   vertex  110.750000 165.250000 48.000000
  endloop
 endfacet
 facet normal -0.707107 -0.000000  0.707107
  outer loop
   vertex  110.750000 165.250000 48.000000
   vertex  113.750000 94.250000 51.000000
   vertex  113.750000 168.250000 51.000000
  endloop
 endfacet
 facet normal -0.000000 -0.707107  0.707107
  outer loop
   vertex  58.750000 165.250000 48.000000
   vertex  110.750000 165.250000 48.000000
   vertex  55.750000 168.250000 51.000000
  endloop
 endfacet
 facet normal -0.000000 -0.707107  0.707107
  outer loop
   vertex  55.750000 168.250000 51.000000
   vertex  110.750000 165.250000 48.000000
   vertex  113.750000 168.250000 51.000000
  endloop
 endfacet
 facet normal  0.707107 -0.000000  0.707107
  outer loop
   vertex  55.750000 168.250000 51.000000
   vertex  55.750000 94.250000 51.000000
   vertex  58.750000 165.250000 48.000000
  endloop
 endfacet
 facet normal  0.707107 -0.000000  0.707107
  outer loop
   vertex  58.750000 165.250000 48.000000
   vertex  55.750000 94.250000 51.000000
   vertex  58.750000 97.250000 48.000000
  endloop
 endfacet
endsolid
